<?xml version="1.0" encoding="UTF-8"?>
<svg xmlns="http://www.w3.org/2000/svg" xmlns:xlink="http://www.w3.org/1999/xlink" width="59pt" height="20pt" viewBox="0 0 59 20" version="1.1">
<g id="surface1">
<path style=" stroke:none;fill-rule:nonzero;fill:rgb(51.764706%,71.764706%,25.098039%);fill-opacity:1;" d="M 0 11.511719 L 24.964844 11.511719 L 24.964844 19.949219 L 0 19.949219 Z M 0 11.511719 "/>
<path style=" stroke:none;fill-rule:nonzero;fill:rgb(14.509804%,60.784314%,83.921569%);fill-opacity:1;" d="M 0 0 L 24.964844 0 L 24.964844 8.445312 L 0 8.445312 Z M 0 0 "/>
<path style=" stroke:none;fill-rule:nonzero;fill:rgb(15.294118%,16.078431%,17.647059%);fill-opacity:1;" d="M 49.925781 18.234375 L 49.816406 18.253906 C 49.429688 18.332031 49.289062 18.359375 49.007812 18.359375 C 48.355469 18.359375 47.585938 18.023438 47.585938 16.429688 C 47.585938 15.609375 47.71875 14.519531 48.933594 14.519531 L 48.941406 14.519531 C 49.148438 14.535156 49.386719 14.554688 49.832031 14.691406 L 49.925781 14.722656 Z M 50.128906 10.285156 L 49.925781 10.324219 L 49.925781 13.269531 L 49.75 13.21875 L 49.699219 13.203125 C 49.496094 13.144531 49.039062 13.007812 48.59375 13.007812 C 46.164062 13.007812 45.652344 14.871094 45.652344 16.4375 C 45.652344 18.578125 46.835938 19.8125 48.90625 19.8125 C 49.78125 19.8125 50.425781 19.722656 51.078125 19.503906 C 51.675781 19.308594 51.890625 19.03125 51.890625 18.4375 L 51.890625 9.976562 C 51.3125 10.082031 50.714844 10.1875 50.128906 10.285156 "/>
<path style=" stroke:none;fill-rule:nonzero;fill:rgb(15.294118%,16.078431%,17.647059%);fill-opacity:1;" d="M 57.15625 18.285156 L 57.050781 18.316406 L 56.679688 18.414062 C 56.332031 18.503906 56.019531 18.554688 55.78125 18.554688 C 55.210938 18.554688 54.871094 18.269531 54.871094 17.78125 C 54.871094 17.464844 55.011719 16.933594 55.945312 16.933594 L 57.15625 16.933594 Z M 56.300781 12.96875 C 55.554688 12.96875 54.78125 13.105469 53.828125 13.40625 L 53.203125 13.59375 L 53.410156 15.023438 L 54.019531 14.820312 C 54.65625 14.609375 55.449219 14.472656 56.042969 14.472656 C 56.308594 14.472656 57.125 14.472656 57.125 15.367188 L 57.125 15.757812 L 55.992188 15.757812 C 53.921875 15.757812 52.964844 16.429688 52.964844 17.863281 C 52.964844 19.089844 53.847656 19.828125 55.332031 19.828125 C 55.789062 19.828125 56.429688 19.738281 56.976562 19.601562 L 57.007812 19.59375 L 57.035156 19.601562 L 57.222656 19.632812 C 57.800781 19.738281 58.398438 19.84375 58.984375 19.953125 L 58.984375 15.261719 C 58.984375 13.746094 58.082031 12.96875 56.300781 12.96875 "/>
<path style=" stroke:none;fill-rule:nonzero;fill:rgb(15.294118%,16.078431%,17.647059%);fill-opacity:1;" d="M 42.753906 18.285156 L 42.648438 18.316406 L 42.277344 18.414062 C 41.929688 18.503906 41.625 18.554688 41.382812 18.554688 C 40.8125 18.554688 40.46875 18.269531 40.46875 17.78125 C 40.46875 17.464844 40.609375 16.933594 41.539062 16.933594 L 42.746094 16.933594 Z M 41.90625 12.96875 C 41.152344 12.96875 40.386719 13.105469 39.433594 13.40625 L 38.808594 13.59375 L 39.015625 15.023438 L 39.625 14.820312 C 40.261719 14.609375 41.054688 14.472656 41.648438 14.472656 C 41.914062 14.472656 42.730469 14.472656 42.730469 15.367188 L 42.730469 15.757812 L 41.597656 15.757812 C 39.527344 15.757812 38.566406 16.429688 38.566406 17.863281 C 38.566406 19.089844 39.445312 19.828125 40.9375 19.828125 C 41.394531 19.828125 42.035156 19.738281 42.582031 19.601562 L 42.613281 19.59375 L 42.640625 19.601562 L 42.820312 19.632812 C 43.40625 19.738281 43.996094 19.84375 44.582031 19.960938 L 44.582031 15.269531 C 44.589844 13.738281 43.6875 12.96875 41.90625 12.96875 "/>
<path style=" stroke:none;fill-rule:nonzero;fill:rgb(15.294118%,16.078431%,17.647059%);fill-opacity:1;" d="M 34.949219 12.984375 C 34.007812 12.984375 33.226562 13.300781 32.9375 13.4375 L 32.863281 13.472656 L 32.796875 13.421875 C 32.398438 13.128906 31.8125 12.976562 30.996094 12.976562 C 30.277344 12.976562 29.605469 13.082031 28.871094 13.300781 C 28.238281 13.496094 27.996094 13.804688 27.996094 14.382812 L 27.996094 19.746094 L 29.96875 19.746094 L 29.96875 14.789062 L 30.0625 14.757812 C 30.464844 14.625 30.699219 14.601562 30.929688 14.601562 C 31.5 14.601562 31.789062 14.910156 31.789062 15.511719 L 31.789062 19.75 L 33.730469 19.75 L 33.730469 15.429688 C 33.730469 15.171875 33.679688 15.023438 33.671875 14.992188 L 33.605469 14.863281 L 33.738281 14.804688 C 34.035156 14.667969 34.363281 14.601562 34.703125 14.601562 C 35.097656 14.601562 35.5625 14.757812 35.5625 15.511719 L 35.5625 19.75 L 37.496094 19.75 L 37.496094 15.316406 C 37.496094 13.746094 36.667969 12.984375 34.949219 12.984375 "/>
<path style=" stroke:none;fill-rule:nonzero;fill:rgb(15.294118%,16.078431%,17.647059%);fill-opacity:1;" d="M 55.703125 5.503906 C 55.414062 5.503906 54.929688 5.472656 54.554688 5.398438 L 54.441406 5.375 L 54.441406 2.480469 C 54.441406 2.242188 54.398438 2.089844 54.390625 2.066406 L 54.332031 1.949219 L 54.457031 1.894531 C 54.484375 1.878906 54.515625 1.871094 54.554688 1.855469 L 54.574219 1.84375 C 54.621094 1.828125 54.664062 1.8125 54.707031 1.796875 C 54.730469 1.789062 54.746094 1.78125 54.761719 1.78125 C 55.199219 1.660156 55.597656 1.675781 55.777344 1.660156 L 55.78125 1.660156 C 56.992188 1.660156 57.132812 2.75 57.132812 3.570312 C 57.125 5.164062 56.347656 5.503906 55.703125 5.503906 M 55.695312 0 C 55.679688 0 55.65625 0 55.640625 0 C 54.507812 0 53.34375 0.316406 52.929688 0.933594 C 52.707031 1.234375 52.582031 1.609375 52.574219 2.050781 L 52.574219 5.039062 C 52.574219 5.292969 52.523438 5.390625 52.515625 5.414062 L 52.449219 5.542969 L 48.867188 5.542969 L 48.867188 3.464844 L 48.859375 3.464844 C 48.816406 1.277344 47.539062 0.0742188 45.695312 0.0742188 L 43.894531 0.0742188 C 43.820312 0.609375 43.761719 0.984375 43.6875 1.519531 L 45.480469 1.519531 C 46.421875 1.519531 46.917969 2.332031 46.917969 3.578125 L 46.917969 5.667969 L 46.792969 5.601562 C 46.769531 5.59375 46.613281 5.542969 46.371094 5.542969 L 43.273438 5.542969 C 43.210938 5.941406 43.136719 6.457031 43.058594 6.976562 L 52.582031 6.976562 C 52.90625 6.910156 53.285156 6.851562 53.613281 6.796875 C 54.09375 7.039062 54.988281 7.164062 55.605469 7.164062 C 57.671875 7.164062 59.015625 5.757812 59.015625 3.59375 C 59.007812 1.449219 57.710938 0.046875 55.695312 0 "/>
<path style=" stroke:none;fill-rule:nonzero;fill:rgb(15.294118%,16.078431%,17.647059%);fill-opacity:1;" d="M 38.996094 7.855469 L 39.082031 7.855469 C 41.152344 7.855469 42.117188 7.164062 42.117188 5.457031 C 42.117188 4.234375 41.234375 3.253906 39.75 3.253906 L 37.847656 3.253906 C 37.273438 3.253906 36.933594 2.925781 36.933594 2.367188 C 36.933594 1.992188 37.074219 1.527344 38.007812 1.527344 L 42.175781 1.527344 C 42.261719 0.976562 42.308594 0.632812 42.390625 0.0820312 L 38.0625 0.0820312 C 36.042969 0.0820312 35.03125 0.941406 35.03125 2.367188 C 35.03125 3.78125 35.910156 4.519531 37.394531 4.519531 L 39.296875 4.519531 C 39.871094 4.519531 40.210938 4.976562 40.210938 5.457031 C 40.210938 5.773438 40.070312 6.429688 39.144531 6.429688 L 38.824219 6.429688 L 32.722656 6.414062 L 31.613281 6.414062 C 30.671875 6.414062 30.011719 5.871094 30.011719 4.617188 L 30.011719 3.75 C 30.011719 2.445312 30.523438 1.632812 31.613281 1.632812 L 33.421875 1.632812 C 33.503906 1.074219 33.554688 0.722656 33.628906 0.195312 L 31.160156 0.195312 C 29.316406 0.195312 28.039062 1.449219 27.996094 3.640625 L 27.996094 4.617188 C 28.039062 6.804688 29.316406 7.851562 31.160156 7.851562 L 32.960938 7.851562 L 36.265625 7.855469 Z M 38.996094 7.855469 "/>
</g>
</svg>
